<svg width="116" height="116" viewBox="0 0 116 116" fill="none" xmlns="http://www.w3.org/2000/svg">
<path d="M58 72.5C66.0081 72.5 72.5 66.0081 72.5 58C72.5 49.9919 66.0081 43.5 58 43.5C49.9919 43.5 43.5 49.9919 43.5 58C43.5 66.0081 49.9919 72.5 58 72.5Z" stroke="#A0CB8A" stroke-width="8" stroke-linecap="round" stroke-linejoin="round"/>
<path d="M93.7666 72.4999C93.1233 73.9577 92.9313 75.5749 93.2156 77.1428C93.4999 78.7107 94.2474 80.1575 95.3616 81.2966L95.6517 81.5866C96.5504 82.4844 97.2634 83.5505 97.7499 84.724C98.2364 85.8975 98.4868 87.1554 98.4868 88.4258C98.4868 89.6961 98.2364 90.954 97.7499 92.1275C97.2634 93.301 96.5504 94.3671 95.6517 95.2649C94.7539 96.1637 93.6878 96.8767 92.5142 97.3632C91.3407 97.8496 90.0828 98.1 88.8125 98.1C87.5421 98.1 86.2842 97.8496 85.1107 97.3632C83.9372 96.8767 82.8711 96.1637 81.9733 95.2649L81.6833 94.9749C80.5442 93.8607 79.0974 93.1132 77.5295 92.8289C75.9616 92.5446 74.3445 92.7365 72.8866 93.3799C71.4571 93.9926 70.2379 95.0099 69.3791 96.3067C68.5204 97.6034 68.0595 99.123 68.0533 100.678V101.5C68.0533 104.064 67.0349 106.522 65.222 108.335C63.4092 110.148 60.9504 111.167 58.3866 111.167C55.8229 111.167 53.3641 110.148 51.5513 108.335C49.7384 106.522 48.72 104.064 48.72 101.5V101.065C48.6826 99.4651 48.1647 97.9136 47.2338 96.612C46.3028 95.3104 45.0019 94.319 43.5 93.7666C42.0422 93.1232 40.425 92.9313 38.8571 93.2156C37.2892 93.4999 35.8424 94.2473 34.7033 95.3616L34.4133 95.6516C33.5155 96.5504 32.4494 97.2634 31.2759 97.7498C30.1024 98.2363 28.8445 98.4867 27.5741 98.4867C26.3038 98.4867 25.0459 98.2363 23.8724 97.7498C22.6989 97.2634 21.6328 96.5504 20.735 95.6516C19.8362 94.7538 19.1232 93.6877 18.6367 92.5142C18.1503 91.3407 17.8999 90.0828 17.8999 88.8124C17.8999 87.5421 18.1503 86.2842 18.6367 85.1107C19.1232 83.9372 19.8362 82.871 20.735 81.9733L21.025 81.6833C22.1392 80.5441 22.8867 79.0973 23.171 77.5294C23.4553 75.9615 23.2634 74.3444 22.62 72.8866C22.0073 71.457 20.99 70.2378 19.6932 69.3791C18.3965 68.5203 16.8769 68.0595 15.3216 68.0533H14.5C11.9362 68.0533 9.47747 67.0348 7.66461 65.222C5.85176 63.4091 4.83331 60.9503 4.83331 58.3866C4.83331 55.8228 5.85176 53.3641 7.66461 51.5512C9.47747 49.7384 11.9362 48.7199 14.5 48.7199H14.935C16.5348 48.6825 18.0863 48.1647 19.3879 47.2337C20.6895 46.3028 21.6809 45.0018 22.2333 43.4999C22.8767 42.0421 23.0686 40.425 22.7843 38.8571C22.5 37.2892 21.7526 35.8424 20.6383 34.7033L20.3483 34.4133C19.4495 33.5155 18.7365 32.4494 18.2501 31.2758C17.7636 30.1023 17.5132 28.8444 17.5132 27.5741C17.5132 26.3037 17.7636 25.0458 18.2501 23.8723C18.7365 22.6988 19.4495 21.6327 20.3483 20.7349C21.2461 19.8361 22.3122 19.1231 23.4857 18.6367C24.6592 18.1502 25.9171 17.8998 27.1875 17.8998C28.4578 17.8998 29.7157 18.1502 30.8892 18.6367C32.0628 19.1231 33.1289 19.8361 34.0266 20.7349L34.3166 21.0249C35.4558 22.1392 36.9026 22.8866 38.4705 23.1709C40.0384 23.4552 41.6555 23.2633 43.1133 22.6199H43.5C44.9295 22.0072 46.1487 20.9899 47.0075 19.6932C47.8663 18.3964 48.3271 16.8769 48.3333 15.3216V14.4999C48.3333 11.9362 49.3518 9.4774 51.1646 7.66455C52.9775 5.8517 55.4362 4.83325 58 4.83325C60.5637 4.83325 63.0225 5.8517 64.8353 7.66455C66.6482 9.4774 67.6666 11.9362 67.6666 14.4999V14.9349C67.6729 16.4902 68.1337 18.0098 68.9925 19.3065C69.8512 20.6032 71.0704 21.6206 72.5 22.2333C73.9578 22.8766 75.5749 23.0686 77.1428 22.7843C78.7107 22.5 80.1575 21.7525 81.2966 20.6383L81.5866 20.3483C82.4844 19.4495 83.5505 18.7365 84.7241 18.25C85.8976 17.7635 87.1555 17.5131 88.4258 17.5131C89.6962 17.5131 90.9541 17.7635 92.1276 18.25C93.3011 18.7365 94.3672 19.4495 95.265 20.3483C96.1638 21.246 96.8768 22.3121 97.3632 23.4857C97.8497 24.6592 98.1001 25.9171 98.1001 27.1874C98.1001 28.4578 97.8497 29.7157 97.3632 30.8892C96.8768 32.0627 96.1638 33.1288 95.265 34.0266L94.975 34.3166C93.8607 35.4557 93.1133 36.9025 92.829 38.4704C92.5447 40.0383 92.7366 41.6554 93.38 43.1133V43.4999C93.9927 44.9295 95.01 46.1487 96.3067 47.0074C97.6035 47.8662 99.123 48.3271 100.678 48.3333H101.5C104.064 48.3333 106.522 49.3517 108.335 51.1646C110.148 52.9774 111.167 55.4362 111.167 57.9999C111.167 60.5637 110.148 63.0224 108.335 64.8353C106.522 66.6481 104.064 67.6666 101.5 67.6666H101.065C99.5097 67.6728 97.9901 68.1336 96.6934 68.9924C95.3967 69.8512 94.3793 71.0704 93.7666 72.4999V72.4999Z" stroke="#A0CB8A" stroke-width="8" stroke-linecap="round" stroke-linejoin="round"/>
</svg>
