<svg width="109" height="109" viewBox="0 0 109 109" fill="none" xmlns="http://www.w3.org/2000/svg">
<path d="M72.6667 95.375V86.2917C72.6667 81.4736 70.7527 76.8528 67.3458 73.4459C63.9389 70.039 59.3181 68.125 54.5 68.125H22.7083C17.8902 68.125 13.2695 70.039 9.86257 73.4459C6.45565 76.8528 4.54167 81.4736 4.54167 86.2917V95.375" stroke="#A0CB8A" stroke-width="8" stroke-linecap="round" stroke-linejoin="round"/>
<path d="M38.6042 49.9583C48.6373 49.9583 56.7708 41.8248 56.7708 31.7917C56.7708 21.7585 48.6373 13.625 38.6042 13.625C28.571 13.625 20.4375 21.7585 20.4375 31.7917C20.4375 41.8248 28.571 49.9583 38.6042 49.9583Z" stroke="#A0CB8A" stroke-width="8" stroke-linecap="round" stroke-linejoin="round"/>
<path d="M77.2083 49.9583L86.2917 59.0417L104.458 40.875" stroke="#A0CB8A" stroke-width="8" stroke-linecap="round" stroke-linejoin="round"/>
</svg>
