<svg width="134" height="134" viewBox="0 0 134 134" fill="none" xmlns="http://www.w3.org/2000/svg">
<path d="M100.5 117.25C109.751 117.25 117.25 109.751 117.25 100.5C117.25 91.2492 109.751 83.75 100.5 83.75C91.2492 83.75 83.75 91.2492 83.75 100.5C83.75 109.751 91.2492 117.25 100.5 117.25Z" stroke="#A0CB8A" stroke-width="8" stroke-linecap="round" stroke-linejoin="round"/>
<path d="M33.5 50.25C42.7508 50.25 50.25 42.7508 50.25 33.5C50.25 24.2492 42.7508 16.75 33.5 16.75C24.2492 16.75 16.75 24.2492 16.75 33.5C16.75 42.7508 24.2492 50.25 33.5 50.25Z" stroke="#A0CB8A" stroke-width="8" stroke-linecap="round" stroke-linejoin="round"/>
<path d="M72.5833 33.5H89.3333C92.2949 33.5 95.1352 34.6765 97.2294 36.7706C99.3235 38.8648 100.5 41.7051 100.5 44.6667V83.75" stroke="#A0CB8A" stroke-width="8" stroke-linecap="round" stroke-linejoin="round"/>
<path d="M33.5 50.25V117.25" stroke="#A0CB8A" stroke-width="8" stroke-linecap="round" stroke-linejoin="round"/>
</svg>
