<svg width="34" height="33" viewBox="0 0 34 33" fill="none" xmlns="http://www.w3.org/2000/svg">
<g clip-path="url(#clip0_94_225)">
<path d="M32 4.12515C30.6833 5.05394 29.2254 5.76431 27.6825 6.2289C26.8544 5.27673 25.7538 4.60186 24.5297 4.29555C23.3055 3.98925 22.0168 4.0663 20.8379 4.51628C19.6589 4.96626 18.6466 5.76746 17.9379 6.81152C17.2291 7.85557 16.8581 9.09212 16.875 10.3539V11.7289C14.4586 11.7916 12.0643 11.2556 9.90514 10.1689C7.74602 9.08214 5.88919 7.47828 4.5 5.50015C4.5 5.50015 -1 17.8752 11.375 23.3752C8.54323 25.2974 5.16984 26.2612 1.75 26.1252C14.125 33.0002 29.25 26.1252 29.25 10.3127C29.2487 9.92965 29.2119 9.5476 29.14 9.1714C30.5433 7.78746 31.5336 6.04013 32 4.12515V4.12515Z" stroke="#A0CB8A" stroke-width="2" stroke-linecap="round" stroke-linejoin="round"/>
</g>
<defs>
<clipPath id="clip0_94_225">
<rect width="33" height="33" fill="white" transform="translate(0.375)"/>
</clipPath>
</defs>
</svg>
