<svg width="109" height="109" viewBox="0 0 109 109" fill="none" xmlns="http://www.w3.org/2000/svg">
<path d="M72.6667 95.375V86.2917C72.6667 81.4736 70.7527 76.8528 67.3458 73.4459C63.9389 70.039 59.3181 68.125 54.5 68.125H22.7084C17.8903 68.125 13.2695 70.039 9.86258 73.4459C6.45567 76.8528 4.54169 81.4736 4.54169 86.2917V95.375" stroke="#A0CB8A" stroke-width="8" stroke-linecap="round" stroke-linejoin="round"/>
<path d="M38.6042 49.9583C48.6373 49.9583 56.7708 41.8248 56.7708 31.7917C56.7708 21.7585 48.6373 13.625 38.6042 13.625C28.571 13.625 20.4375 21.7585 20.4375 31.7917C20.4375 41.8248 28.571 49.9583 38.6042 49.9583Z" stroke="#A0CB8A" stroke-width="8" stroke-linecap="round" stroke-linejoin="round"/>
<path d="M89.0417 60.7083C95.485 60.7083 100.708 55.485 100.708 49.0417C100.708 42.5983 95.485 37.375 89.0417 37.375C82.5983 37.375 77.375 42.5983 77.375 49.0417C77.375 55.485 82.5983 60.7083 89.0417 60.7083Z" stroke="#A0CB8A" stroke-width="8" stroke-linecap="round" stroke-linejoin="round"/>
<path d="M103.702 63.5459L97.204 57.3605" stroke="#A0CB8A" stroke-width="8" stroke-linecap="round" stroke-linejoin="round"/>
</svg>
